Neverland 2011 Part 1 Part2 HDTV XViD AC3 DTRG


Information:


Episode 1


Format : AVI
Format/Info : Audio Video Interleave
File size : 1.34 GiB
Duration : 1h 24mn
Overall bit rate : 2 268 Kbps
Writing application : VirtualDubMod 1.5.10.2 (build 2540/release)
Writing library : VirtualDubMod build 2540/release


Video
ID : 0
Format : MPEG-4 Visual
Format profile : Advanced Simple@L5
Format settings, BVOP : 1
Format settings, QPel : No
Format settings, GMC : No warppoints
Format settings, Matrix : Default (H.263)
Muxing mode : Packed bitstream
Codec ID : XVID
Codec ID/Hint : XviD
Duration : 1h 24mn
Bit rate : 1 875 Kbps
Width : 720 pixels
Height : 400 pixels
Display aspect ratio : 16:9
Frame rate : 23.976 fps
Color space : YUV
Chroma subsampling : 4:2:0
Bit depth : 8 bits
Scan type : Progressive
Compression mode : Lossy
Bits/(Pixel*Frame) : 0.272
Stream size : 1.11 GiB (83%)
Writing library : XviD 64


Audio
ID : 1
Format : AC-3
Format/Info : Audio Coding 3
Mode extension : CM (complete main)
Codec ID : 2000
Duration : 1h 24mn
Bit rate mode : Constant
Bit rate : 384 Kbps
Channel(s) : 6 channels
Channel positions : Front: L C R, Side: L R, LFE
Sampling rate : 48.0 KHz
Bit depth : 16 bits
Compression mode : Lossy
Stream size : 233 MiB (17%)
Alignment : Split accross interleaves
Interleave, duration : 42 ms (1.00 video frame)
Interleave, preload duration : 500 ms



Episode 2


Format : AVI
Format/Info : Audio Video Interleave
File size : 1.46 GiB
Duration : 1h 24mn
Overall bit rate : 2 469 Kbps
Writing application : VirtualDubMod 1.5.10.2 (build 2540/release)
Writing library : VirtualDubMod build 2540/release


Video
ID : 0
Format : MPEG-4 Visual
Format profile : Advanced Simple@L5
Format settings, BVOP : 1
Format settings, QPel : No
Format settings, GMC : No warppoints
Format settings, Matrix : Default (H.263)
Muxing mode : Packed bitstream
Codec ID : XVID
Codec ID/Hint : XviD
Duration : 1h 24mn
Bit rate : 2 076 Kbps
Width : 720 pixels
Height : 400 pixels
Display aspect ratio : 16:9
Frame rate : 23.976 fps
Color space : YUV
Chroma subsampling : 4:2:0
Bit depth : 8 bits
Scan type : Progressive
Compression mode : Lossy
Bits/(Pixel*Frame) : 0.301
Stream size : 1.23 GiB (84%)
Writing library : XviD 64


Audio
ID : 1
Format : AC-3
Format/Info : Audio Coding 3
Mode extension : CM (complete main)
Codec ID : 2000
Duration : 1h 24mn
Bit rate mode : Constant
Bit rate : 384 Kbps
Channel(s) : 6 channels
Channel positions : Front: L C R, Side: L R, LFE
Sampling rate : 48.0 KHz
Bit depth : 16 bits
Compression mode : Lossy
Stream size : 233 MiB (16%)
Alignment : Split accross interleaves
Interleave, duration : 42 ms (1.00 video frame)
Interleave, preload duration : 500 ms


 
http://www.imdb.com/title/tt1720619/


Storyline

Raised on the streets of turn-of-the century London, orphaned Peter and his 
pals survive by their fearless wits as cunning young pickpockets. Now, they've been rounded up by their mentor Jimmy Hook to snatch a priceless, some believe, magical treasure which transports them to another world.
Source Used


Neverland 2HD 720p ...........Both episodes ..................Thanks



Not real sure any/many will want this but saw the poor quality on the releases before so brought you the 2 episodes in nice quality in my opinion with nice 
AC3 audio.


Poster:

 
http://i.imgur.com/G79UO.jpg


Screens:

 
http://i.imgur.com/1U5dO.png

 
http://i.imgur.com/eceYE.png

 
http://i.imgur.com/VvOxQ.png


ENJOY!